<svg 
    xmlns="http://www.w3.org/2000/svg"
    xmlnsXlink="http://www.w3.org/1999/xlink"
    viewBox="0 0 1024 1024"
    width="1024pt"
    height="1024pt"
  >
    <path 
      transform="translate(73.689, 87.994)" 
      fill="#000000" 
      fillRule="evenodd" 
      stroke="none" 
      strokeWidth="2"
      strokeLinecap="square" 
      strokeLinejoin="bevel" 
      d="M380.934 310.425L337.22 269.209C326.717 255.657 322.137 247.048 323.481 243.384C367.495 234.728 392.899 219.027 467.112 236.736C467.933 232.999 472.929 228.419 482.1 222.998C486.395 211.432 493.328 201.67 502.9 193.711C513.99 175.859 523.345 160.789 534.276 150.558C555.588 120.179 583.41 100.42 596.164 88.883C621.982 65.5285 641.511 62.8586 643.647 54.2591C644.457 50.9988 640.966 47.7369 641.353 46.5055C642.493 42.8773 647.393 38.1577 656.053 32.3468C675.617 15.0124 694.782 5.08784 713.548 2.57299C770.009 -4.9934 792.463 5.82435 810.277 13.1823C851.583 30.2441 867.382 62.06 872.349 73.0981C884.733 100.619 878.904 123.464 876.486 131.903C870.04 154.393 851.687 163.838 844.299 166.794C822.169 175.649 791.542 174.488 784.857 163.958C757.735 173.582 749.809 177.553 751.876 169.757C725.704 177.398 720.658 199.206 718.26 188.85C687.406 213.728 694.845 237.983 688.08 224.693C662.762 244.21 650.725 264.846 648.451 258.952C621.871 264.645 623.88 294.927 619.419 281.978C606.727 295.118 604.178 308.426 604.548 314.922C642.193 363.14 659.599 391.713 672.342 424.006C673.385 425.441 675.208 427.674 677.811 430.705C680.979 435.584 682.28 438.59 681.715 439.723C664.839 440.342 652.006 443.454 643.216 449.06L567.873 417.932C566.138 428.883 564.191 435.388 562.033 437.449C548.965 423.753 525.471 435.37 514.099 456.691C509.057 466.145 511.892 502.562 518.388 526.461C469.671 530.956 452.445 549.6 442.765 561.604C419.138 590.903 435.89 626.562 446.427 650.021C327.797 770.2 213.744 864.519 0 864.965C115.543 779.241 246.187 622.832 266.029 454.056C371.382 437.996 363.841 380.494 358.452 356.637C361.789 340.766 361.344 332.011 364.697 324.164C364.697 324.164 370.109 319.584 380.934 310.425Z"
    />
  </svg>